<svg width="600" height="400" viewBox="0 0 600 400" fill="none" xmlns="http://www.w3.org/2000/svg">
  <style>
    .animate-float {
      animation: float 3s ease-in-out infinite;
    }
    @keyframes float {
      0%, 100% { transform: translateY(0); }
      50% { transform: translateY(-10px); }
    }
    .animate-pulse {
      animation: pulse 2s ease-in-out infinite;
    }
    @keyframes pulse {
      0%, 100% { transform: scale(1); }
      50% { transform: scale(1.1); }
    }
  </style>
  
  <!-- Background Elements -->
  <circle cx="300" cy="200" r="150" fill="#E8F5E9" class="animate-float" />
  <circle cx="150" cy="100" r="20" fill="#C8E6C9" />
  <circle cx="450" cy="300" r="30" fill="#C8E6C9" />
  
  <!-- Form -->
  <rect x="200" y="100" width="200" height="250" rx="10" fill="#FFFFFF" stroke="#43A047" stroke-width="2" />
  
  <!-- Form Lines -->
  <rect x="220" y="130" width="160" height="10" rx="5" fill="#E8F5E9" />
  <rect x="220" y="160" width="160" height="10" rx="5" fill="#E8F5E9" />
  <rect x="220" y="190" width="160" height="10" rx="5" fill="#E8F5E9" />
  <rect x="220" y="220" width="160" height="10" rx="5" fill="#E8F5E9" />
  
  <!-- Checkmark -->
  <circle cx="450" cy="150" r="30" fill="#43A047" class="animate-pulse" />
  <path d="M435 150 L445 160 L465 140" stroke="#FFFFFF" stroke-width="4" stroke-linecap="round" stroke-linejoin="round" />
  
  <!-- Person -->
  <circle cx="150" cy="200" r="25" fill="#2E7D32" />
  <rect x="140" y="225" width="20" height="50" fill="#2E7D32" />
  <rect x="130" y="250" width="40" height="25" fill="#2E7D32" />
  
  <!-- Decorative Elements -->
  <circle cx="500" cy="100" r="10" fill="#A5D6A7" />
  <circle cx="100" cy="300" r="15" fill="#A5D6A7" />
  <circle cx="450" cy="350" r="8" fill="#A5D6A7" />
  
  <!-- Stars -->
  <path d="M500 250 L505 260 L515 260 L507 267 L510 277 L500 272 L490 277 L493 267 L485 260 L495 260 Z" fill="#66BB6A" />
  <path d="M150 50 L153 57 L160 57 L154 62 L156 69 L150 65 L144 69 L146 62 L140 57 L147 57 Z" fill="#66BB6A" />
</svg> 